# xmcd CD database file
#
# Track frame offsets:
#	150
#	17204
#	39154
#	56608
#	72939
#	90180
#	104334
#	119212
#	137873
#	165558
#	176909
#	204139
#	236720
#
# Disc length: 3445 seconds
#
# Revision: 1
# Processed by: cddbd v1.5.2PL0 Copyright (c) Steve Scherf et al.
# Submitted via: CDex 1.79
#
DISCID=b00d730d
DTITLE=INXS - Kick (Deluxe Edition) [CD) (2 of 5)
DYEAR=2011
DGENRE=Pop
TTITLE0=Move On (Guitar Version)
TTITLE1=I'm Coming (Home)
TTITLE2=Mediate (Live)
TTITLE3=Never Tear Us Apart (Live)
TTITLE4=Kick (Live)
TTITLE5=On The Rocks
TTITLE6=Do Wot You Do (B-Side)
TTITLE7=Mystify (Chicago Demo)
TTITLE8=Jesus Was A Man (Demo)
TTITLE9=The Trap (Demo)
TTITLE10=Guns In The Sky (Kick Ass Remix)
TTITLE11=Need You Tonight [Mendelson Extended Mix]
TTITLE12=Move On
EXTD=YEAR: 2011
EXTT0=
EXTT1=
EXTT2=
EXTT3=
EXTT4=
EXTT5=
EXTT6=
EXTT7=
EXTT8=
EXTT9=
EXTT10=
EXTT11=
EXTT12=
PLAYORDER=
